<?xml version="1.0" encoding="UTF-8"?>
<svg version="1.1" xmlns="http://www.w3.org/2000/svg" width="303" height="329">
<path d="M0 0 C3.06302584 0.00849358 6.12416942 -0.02032754 9.18701172 -0.05200195 C25.93286213 -0.11299135 41.40730281 2.36585292 57.20654297 8.00854492 C58.157146 8.34515137 59.10774902 8.68175781 60.0871582 9.02856445 C81.44249452 16.88246678 99.5525241 28.73384426 115.83154297 44.44604492 C116.69521484 45.24655273 117.55888672 46.04706055 118.44873047 46.87182617 C131.41410391 59.21114575 141.23006887 74.9572687 147.58154297 91.63354492 C147.85119873 92.32601318 148.12085449 93.01848145 148.39868164 93.73193359 C154.08015213 109.47021965 155.4150238 125.19738309 155.28564453 141.78857422 C155.28441568 143.88345974 155.28495913 145.97834691 155.28710556 148.0732317 C155.28799908 153.62278085 155.26501912 159.17197658 155.23666382 164.72144318 C155.21368032 169.95179715 155.21280039 175.18207035 155.20996094 180.41247559 C155.18907149 195.65287783 155.13322642 210.893216 155.08154297 226.13354492 C154.99904297 260.22666992 154.91654297 294.31979492 154.83154297 329.44604492 C54.84154297 329.44604492 -45.14845703 329.44604492 -148.16845703 329.44604492 C-148.23033203 295.12604492 -148.29220703 260.80604492 -148.35595703 225.44604492 C-148.38326904 214.62823242 -148.41058105 203.81041992 -148.4387207 192.66479492 C-148.45227051 179.40698242 -148.45227051 179.40698242 -148.45478821 173.19116211 C-148.4575717 168.8701511 -148.46876836 164.54925181 -148.48518372 160.22827148 C-148.50590163 154.70072837 -148.51190466 149.17334555 -148.50767386 143.64576721 C-148.50855735 141.62707113 -148.51442244 139.60836891 -148.52610242 137.58970642 C-148.6970594 106.57929303 -139.54214354 78.21534585 -119.16845703 54.44604492 C-118.73952148 53.94024902 -118.31058594 53.43445312 -117.86865234 52.91333008 C-96.36730805 27.75404767 -67.07820448 11.5936232 -35.16845703 3.44604492 C-34.12077148 3.17010498 -33.07308594 2.89416504 -31.99365234 2.60986328 C-21.33759282 0.12133568 -10.89941465 -0.04592693 0 0 Z " fill="#43A895" transform="translate(148.16845703125,-0.446044921875)"/>
</svg>
