<?xml version="1.0" encoding="UTF-8"?>
<svg version="1.1" xmlns="http://www.w3.org/2000/svg" width="290" height="340">
<path d="M0 0 C0.82715515 -0.00085602 1.6543103 -0.00171204 2.50653076 -0.00259399 C5.28458313 -0.00424807 8.0625751 0.00127268 10.84062195 0.00672913 C12.86371706 0.00703547 14.88681228 0.00690195 16.90990734 0.00636387 C22.32962881 0.00613803 27.74932823 0.01193563 33.16904449 0.0189743 C38.25394765 0.02466749 43.33884543 0.02493733 48.42375183 0.02565002 C63.29667956 0.03089821 78.16960318 0.04485935 93.04252625 0.05775452 C126.26940125 0.07837952 159.49627625 0.09900452 193.73002625 0.12025452 C193.73002625 112.32025452 193.73002625 224.52025452 193.73002625 340.12025452 C143.88971375 340.24400452 143.88971375 340.24400452 93.04252625 340.37025452 C77.32301331 340.42487854 77.32301331 340.42487854 61.28593445 340.48060608 C48.45890808 340.49867249 48.45890808 340.49867249 42.44821167 340.50202942 C38.26286281 340.50574615 34.07771824 340.52069653 29.89242554 340.54255676 C24.54293357 340.57012481 19.19373592 340.57819495 13.84417951 340.57254362 C11.88771457 340.57372422 9.93123865 340.58157805 7.97483504 340.59711504 C-11.86653856 340.74728439 -26.80925302 336.10614765 -42.26997375 323.12025452 C-43.34505188 322.26367249 -43.34505188 322.26367249 -44.44184875 321.38978577 C-73.75556789 297.01366117 -87.4303886 254.34535856 -93.26997375 218.12025452 C-93.49209534 216.87622864 -93.49209534 216.87622864 -93.71870422 215.60707092 C-98.97053053 185.59421208 -99.18170331 151.04245783 -93.26997375 121.12025452 C-93.06597961 120.04662659 -92.86198547 118.97299866 -92.65180969 117.86683655 C-89.73830131 102.83491445 -85.94290163 88.3494321 -80.26997375 74.12025452 C-79.98509094 73.40305237 -79.70020813 72.68585022 -79.4066925 71.94691467 C-68.39362093 44.65938973 -50.33533569 16.99016827 -22.6723175 4.49525452 C-14.90537211 1.41299434 -8.3605008 -0.03157648 0 0 Z " fill="#43A895" transform="translate(96.26997375488281,-0.1202545166015625)"/>
</svg>
