<?xml version="1.0" encoding="UTF-8"?>
<svg version="1.1" xmlns="http://www.w3.org/2000/svg" width="370" height="280">
<path d="M0 0 C42.405 -0.061875 84.81 -0.12375 128.5 -0.1875 C141.87595703 -0.21481201 155.25191406 -0.24212402 169.03320312 -0.27026367 C185.40136719 -0.28381348 185.40136719 -0.28381348 193.07067871 -0.28633118 C198.41251658 -0.28911944 203.75426246 -0.30008414 209.09606934 -0.31672668 C215.92268378 -0.33796346 222.74916689 -0.34345668 229.57581234 -0.33921683 C232.07317806 -0.34010264 234.57054859 -0.3459975 237.06788731 -0.35764539 C253.51256633 -0.43074501 268.96476192 0.12318971 284.5 6.125 C285.28914795 6.4250293 286.0782959 6.72505859 286.89135742 7.03417969 C318.51165616 19.48556476 343.45430385 44.96662634 357.23046875 75.86328125 C366.02013857 96.54938438 370.43521326 117.4630529 370.375 139.9375 C370.37418427 141.08761063 370.37418427 141.08761063 370.37335205 142.26095581 C370.2893516 168.11461536 364.41452741 191.31835817 352 214 C351.26136719 215.36705078 351.26136719 215.36705078 350.5078125 216.76171875 C334.01778653 245.68913719 306.51725963 268.02900921 274.375 276.9375 C265.59915801 279.3232032 257.40636294 280.14704995 248.32557678 280.12025452 C247.26451218 280.12111053 246.20344757 280.12196655 245.11022949 280.12284851 C241.55011303 280.12450128 237.99004379 280.11898395 234.42993164 280.11352539 C231.83589142 280.11321902 229.24185112 280.11335262 226.64781094 280.11389065 C220.40566778 280.11442153 214.16353905 280.10981181 207.92139959 280.10338932 C200.69853521 280.09618069 193.47567585 280.09539409 186.25280762 280.09460449 C167.18936946 280.08935719 148.12593451 280.07539604 129.0625 280.0625 C65.1765625 280.0315625 65.1765625 280.0315625 0 280 C0 187.6 0 95.2 0 0 Z " fill="#E5F7F4" transform="translate(0,0)"/>
</svg>
